<svg height="1084" viewBox="0 0 1920 1084" width="1920" xmlns="http://www.w3.org/2000/svg"><g fill="#fff"><path d="m1909.1891 872.424731-463.4261.0381-2.7258-.0381v203.907199c0 4.4671 3.5989 8.0879 8.0335 8.0879h458.2701c5.891 0 10.6593-4.8034 10.6593-10.7324v-190.378399c0-6.0103-4.8415-10.8843-10.8109-10.8843"/><path d="m1635.9324 668.922531c33.827-27.0818 68.8068-55.083 102.4742-84.3374 116.8817-101.5522 177.9289-160.1312 179.2009-280.0426.9522-89.7322-25.4979-161.9948-78.601-214.7859996-61.7334-61.3647-157.324-92.3359-276.5764-89.58839999-61.1505 1.41589999-148.6149 14.94449999-218.0432 71.34039999-69.1896 56.2058996-105.5745 142.5856996-108.1457 256.7415996-.054 2.4464.7976 4.7574 2.3328 6.3386 1.3128 1.3478 3.0079 2.064 4.9011 2.064h190.24c3.8105 0 8.1447-2.5712 8.5218-6.7291 8.1043-90.326 68.7826-122.3143 118.5524-122.3143.2089 0 .4069.0026.6158.0026 78.2918.415 122.8025 36.6046 128.718 104.6577 4.4561 51.2045-41.1367 84.8201-98.8561 127.3808-6.2466 4.6027-12.6475 9.3247-19.1702 14.1986l-5.3136 3.9681c-211.3331 157.6279-323.2025 293.631-332.5027 404.2366-.2251 2.6499.6483 5.2021 2.46 7.1848 1.8415 2.0179 4.4508 3.1733 7.1657 3.1733h199.1362c16.005-61.8881 98.045-127.5653 192.89-203.4894"/><path d="m835.2939 336.671731h-191.5175c-5.4598 0-9.8862 4.4536-9.8862 9.946v193.6411h211.2843v-193.6411c0-5.4924-4.4236-9.946-9.8806-9.946"/><path d="m412.7019 336.671731h-191.5122c-5.4598 0-9.886 4.4536-9.886 9.946v193.6411h211.2843v-193.6411c0-5.4924-4.4236-9.946-9.886-9.946"/><path d="m1046.5818 540.249931h-201.3982v533.846999c0 5.495 4.4263 9.9485 9.886 9.9485h191.5122c5.4624 0 9.886-4.4535 9.886-9.9485v-523.900999c0-5.4924-4.4236-9.946-9.886-9.946"/><path d="m422.5919 1074.12083c0 5.4924 4.4264 9.9459 9.8861 9.9459h191.5175c5.4571 0 9.8807-4.4535 9.8807-9.9459v-533.846899h-211.2843z"/><path d="m0 550.219431v523.901199c0 5.495 4.4263 9.9458 9.886 9.9458h191.5203c5.4543 0 9.8779-4.4508 9.8779-9.9458v-533.846999h-201.3982c-5.4598 0-9.886 4.4536-9.886 9.9458"/></g></svg>